<svg width="14" height="14" viewBox="0 0 14 14" fill="none" xmlns="http://www.w3.org/2000/svg">
<path fill-rule="evenodd" clip-rule="evenodd" d="M11.6663 0.333252C12.0345 0.333252 12.333 0.631729 12.333 0.999919V1.66659H12.9997C13.3679 1.66659 13.6663 1.96506 13.6663 2.33325C13.6663 2.70144 13.3679 2.99992 12.9997 2.99992H11.9425L11.0209 3.92146C11.842 4.94791 12.333 6.24991 12.333 7.66659C12.333 10.9803 9.64672 13.6666 6.33301 13.6666C3.0193 13.6666 0.333008 10.9803 0.333008 7.66659C0.333008 4.35288 3.0193 1.66659 6.33301 1.66659C7.74968 1.66659 9.05169 2.15757 10.0781 2.97865L10.9997 2.05711V0.999919C10.9997 0.631729 11.2982 0.333252 11.6663 0.333252ZM9.12779 3.929C8.34874 3.34552 7.38123 2.99992 6.33301 2.99992C3.75568 2.99992 1.66634 5.08926 1.66634 7.66659C1.66634 10.2439 3.75568 12.3333 6.33301 12.3333C8.91034 12.3333 10.9997 10.2439 10.9997 7.66659C10.9997 6.61836 10.6541 5.65086 10.0706 4.8718L9.11408 5.82833C9.46309 6.35528 9.66634 6.9872 9.66634 7.66659C9.66634 9.50753 8.17396 10.9999 6.33301 10.9999C4.49206 10.9999 2.99967 9.50753 2.99967 7.66659C2.99967 5.82564 4.49206 4.33325 6.33301 4.33325C7.0124 4.33325 7.64431 4.5365 8.17127 4.88552L9.12779 3.929ZM7.19529 5.8615C6.9342 5.73655 6.64177 5.66659 6.33301 5.66659C5.22844 5.66659 4.33301 6.56202 4.33301 7.66659C4.33301 8.77116 5.22844 9.66659 6.33301 9.66659C7.43758 9.66659 8.33301 8.77116 8.33301 7.66659C8.33301 7.35782 8.26304 7.0654 8.13809 6.80431L7.58857 7.35383C7.63821 7.4471 7.66634 7.55356 7.66634 7.66659C7.66634 8.03478 7.36786 8.33325 6.99967 8.33325H6.33301C5.96482 8.33325 5.66634 8.03478 5.66634 7.66659V6.99992C5.66634 6.63173 5.96482 6.33325 6.33301 6.33325C6.44604 6.33325 6.5525 6.36138 6.64577 6.41102L7.19529 5.8615Z" fill="#909293"/>
</svg>
