<svg width="40" height="40" viewBox="0 0 40 40" fill="none" xmlns="http://www.w3.org/2000/svg">
<path fill-rule="evenodd" clip-rule="evenodd" d="M33.6179 25.0714C33.3314 24.4769 32.9566 23.9231 32.5015 23.43C32.3182 23.2315 32.1234 23.0445 31.9182 22.8699L32.9854 22.3659C34.0692 21.8541 35.0207 21.0997 35.7661 20.161C36.8628 18.78 37.4597 17.0685 37.4597 15.305V10.9334C37.4597 8.6633 36.0102 6.73173 33.9862 6.01378C33.2682 3.9898 31.3367 2.54028 29.0666 2.54028H7.75759C4.87548 2.54028 2.53906 4.8767 2.53906 7.75881V8.4939C2.53906 10.2582 3.20355 11.9577 4.40021 13.2541C4.89591 13.7911 5.47245 14.2474 6.10897 14.6064L6.45063 14.7992C6.74409 15.388 7.12122 15.9373 7.57482 16.4287C7.76879 16.6388 7.97514 16.8366 8.19262 17.021L7.18544 17.4966C6.05992 18.0281 5.07186 18.8116 4.2978 19.7863C3.15895 21.2204 2.53906 22.9978 2.53906 24.8291V29.0678C2.53906 31.3379 3.98858 33.2695 6.01256 33.9874C6.73051 36.0114 8.66208 37.4609 10.9322 37.4609H32.2412C35.1233 37.4609 37.4597 35.1245 37.4597 32.2424V31.1665C37.4597 29.4757 36.8229 27.847 35.6761 26.6046C35.201 26.09 34.6485 25.6527 34.0385 25.3086L33.6179 25.0714Z" fill="#0F0F0F"/>
<path fill-rule="evenodd" clip-rule="evenodd" d="M33.6179 25.0714C33.3314 24.4769 32.9566 23.9231 32.5015 23.43C32.3182 23.2315 32.1234 23.0445 31.9182 22.8699L32.9854 22.3659C34.0692 21.8541 35.0207 21.0997 35.7661 20.161C36.8628 18.78 37.4597 17.0685 37.4597 15.305V10.9334C37.4597 8.6633 36.0102 6.73173 33.9862 6.01378C33.2682 3.9898 31.3367 2.54028 29.0666 2.54028H7.75759C4.87548 2.54028 2.53906 4.8767 2.53906 7.75881V8.4939C2.53906 10.2582 3.20355 11.9577 4.40021 13.2541C4.89591 13.7911 5.47245 14.2474 6.10897 14.6064L6.45063 14.7992C6.74409 15.388 7.12122 15.9373 7.57482 16.4287C7.76879 16.6388 7.97514 16.8366 8.19262 17.021L7.18544 17.4966C6.05992 18.0281 5.07186 18.8116 4.2978 19.7863C3.15895 21.2204 2.53906 22.9978 2.53906 24.8291V29.0678C2.53906 31.3379 3.98858 33.2695 6.01256 33.9874C6.73051 36.0114 8.66208 37.4609 10.9322 37.4609H32.2412C35.1233 37.4609 37.4597 35.1245 37.4597 32.2424V31.1665C37.4597 29.4757 36.8229 27.847 35.6761 26.6046C35.201 26.09 34.6485 25.6527 34.0385 25.3086L33.6179 25.0714Z" fill="white"/>
<path fill-rule="evenodd" clip-rule="evenodd" d="M35.9552 23.5113C36.5339 23.906 37.0666 24.3655 37.5429 24.8814C39.1227 26.5929 40 28.8367 40 31.1659V32.2418C40 36.5265 36.5265 40 32.2418 40H10.9328C7.97048 40 5.40068 38.3408 4.09366 35.9063C1.6592 34.5993 0 32.0295 0 29.0672V24.8285C0 22.4237 0.81403 20.0896 2.30957 18.2063C2.85233 17.5229 3.47521 16.911 4.16291 16.3829C3.56966 15.9772 3.02332 15.5055 2.53467 14.9761C0.904958 13.2106 0 10.896 0 8.4933V7.75821C0 3.47347 3.47347 0 7.75821 0H29.0672C32.0295 0 34.5993 1.6592 35.9063 4.09366C38.3408 5.40069 40 7.97048 40 10.9328V15.3044C40 17.6414 39.2089 19.9097 37.7556 21.7398C37.2283 22.4038 36.6232 22.9982 35.9552 23.5113ZM33.9862 6.01378C33.2682 3.9898 31.3367 2.54028 29.0666 2.54028H7.75759C4.87548 2.54028 2.53906 4.8767 2.53906 7.75881V8.4939C2.53906 10.2582 3.20355 11.9577 4.40021 13.2541C4.89591 13.7911 5.47245 14.2474 6.10897 14.6064L6.45063 14.7992C6.48235 14.8628 6.51567 14.9254 6.54934 14.9881C6.82714 15.5054 7.17026 15.9904 7.57482 16.4287C7.76879 16.6388 7.97514 16.8366 8.19262 17.021L7.18544 17.4966C6.7124 17.72 6.26426 17.9873 5.84546 18.2952C5.2678 18.7199 4.74653 19.2213 4.2978 19.7863C3.15895 21.2204 2.53906 22.9978 2.53906 24.8291V29.0678C2.53906 31.3379 3.98858 33.2695 6.01256 33.9874C6.73051 36.0114 8.66208 37.4609 10.9322 37.4609H32.2412C35.1233 37.4609 37.4597 35.1245 37.4597 32.2424V31.1665C37.4597 29.4757 36.8229 27.847 35.6761 26.6046C35.201 26.09 34.6485 25.6527 34.0385 25.3086L33.6179 25.0714C33.5923 25.0183 33.5667 24.9649 33.5397 24.9125C33.2644 24.3779 32.916 23.879 32.5015 23.43C32.3182 23.2315 32.1234 23.0445 31.9182 22.8699L32.9854 22.3659C33.4381 22.1522 33.8683 21.8955 34.2694 21.6013C34.8287 21.1912 35.332 20.7077 35.7661 20.161C36.8628 18.78 37.4597 17.0685 37.4597 15.305V10.9334C37.4597 8.6633 36.0102 6.73173 33.9862 6.01378Z" fill="white"/>
<path fill-rule="evenodd" clip-rule="evenodd" d="M5.48538 15.7121C4.73369 15.2881 4.05283 14.7493 3.46744 14.1151C2.05426 12.5841 1.26953 10.5771 1.26953 8.4936V7.75851C1.26953 4.17508 4.17447 1.27014 7.7579 1.27014H29.0669C31.6814 1.27014 33.932 2.8159 34.9597 5.04025C37.1841 6.06797 38.7299 8.31863 38.7299 10.9331V15.3047C38.7299 17.355 38.0359 19.3449 36.7608 20.9504C36.0067 21.9 35.0712 22.6875 34.0108 23.268C34.2179 23.5508 34.4055 23.846 34.5728 24.1516L34.6627 24.2023C35.3879 24.6114 36.0448 25.1312 36.6095 25.743C37.9728 27.22 38.7299 29.1562 38.7299 31.1662V32.2421C38.7299 35.8255 35.8249 38.7305 32.2415 38.7305H10.9325C8.31802 38.7305 6.06736 37.1847 5.03964 34.9604C2.81529 33.9326 1.26953 31.682 1.26953 29.0675V24.8288C1.26953 22.7107 1.98649 20.655 3.30369 18.9963C4.07061 18.0306 5.01916 17.2272 6.09369 16.6302C5.87661 16.3398 5.67954 16.0365 5.50334 15.7223L5.48538 15.7121ZM6.45063 14.7992L6.10897 14.6064C5.47245 14.2474 4.89591 13.7911 4.40021 13.2541C3.20355 11.9577 2.53906 10.2582 2.53906 8.4939V7.75881C2.53906 4.8767 4.87548 2.54028 7.75759 2.54028H29.0666C31.3367 2.54028 33.2682 3.9898 33.9862 6.01378C36.0102 6.73173 37.4597 8.6633 37.4597 10.9334V15.305C37.4597 17.0685 36.8628 18.78 35.7661 20.161C35.0602 21.0499 34.1699 21.7733 33.1571 22.2821C33.1003 22.3106 33.0429 22.3388 32.9854 22.3659L31.9182 22.8699C32.1234 23.0445 32.3182 23.2315 32.5015 23.43C32.6224 23.561 32.738 23.696 32.8474 23.8352C33.1498 24.22 33.4075 24.6349 33.6179 25.0714L34.0385 25.3086C34.6485 25.6527 35.201 26.09 35.6761 26.6046C36.8229 27.847 37.4597 29.4757 37.4597 31.1665V32.2424C37.4597 35.1245 35.1233 37.4609 32.2412 37.4609H10.9322C8.66208 37.4609 6.73051 36.0114 6.01256 33.9874C3.98858 33.2695 2.53906 31.3379 2.53906 29.0678V24.8291C2.53906 22.9978 3.15895 21.2204 4.2978 19.7863C5.01835 18.879 5.92463 18.1371 6.9543 17.6102C7.03078 17.571 7.10762 17.5334 7.18544 17.4966L8.19262 17.021C7.97514 16.8366 7.76879 16.6388 7.57482 16.4287C7.46411 16.3087 7.35826 16.1851 7.25677 16.0585C6.94243 15.6665 6.67247 15.2443 6.45063 14.7992Z" fill="#0F0F0F"/>
<path fill-rule="evenodd" clip-rule="evenodd" d="M37.4618 10.9327C37.4618 8.05055 35.1253 5.71411 32.2432 5.71411H10.9339C8.05177 5.71411 5.71533 8.05055 5.71533 10.9327V11.6678C5.71533 13.4321 6.37814 15.1323 7.57482 16.4287C8.07052 16.9657 8.64875 17.4213 9.28529 17.7804L12.5647 19.6304L10.3618 20.6706C9.23623 21.2021 8.24816 21.9856 7.47409 22.9604C6.33522 24.3945 5.71533 26.1719 5.71533 28.0032V32.2419C5.71533 35.1241 8.05005 37.4609 10.9322 37.4609L32.2432 37.4605C35.1253 37.4605 37.4618 35.1241 37.4618 32.2419V31.166C37.4618 29.4752 36.8249 27.8465 35.6781 26.6041C35.2031 26.0895 34.6506 25.6522 34.0405 25.3081L30.7211 23.4356L32.9874 22.3654C34.0713 21.8535 35.0227 21.0991 35.7681 20.1604C36.8648 18.7794 37.4618 17.0678 37.4618 15.3043V10.9327Z" fill="#0F0F0F"/>
<path fill-rule="evenodd" clip-rule="evenodd" d="M34.2855 7.75887C34.2855 4.87673 31.9487 2.54028 29.0666 2.54028H7.75759C4.87548 2.54028 2.53906 4.8767 2.53906 7.75881V8.4939C2.53906 10.2582 3.20355 11.9577 4.40021 13.2541C4.89591 13.7911 5.47245 14.2474 6.10897 14.6064L9.38846 16.4565L7.18544 17.4966C6.05992 18.0281 5.07186 18.8116 4.2978 19.7863C3.15895 21.2204 2.53906 22.9978 2.53906 24.8291V29.0678C2.53906 31.9499 4.87551 34.2867 7.75765 34.2867H29.0669C31.949 34.2867 34.2855 31.9503 34.2855 29.0681V27.9922C34.2855 26.3014 33.6483 24.6724 32.5015 23.43C32.0264 22.9154 31.4743 22.4784 30.8643 22.1343L27.5448 20.2617L29.8111 19.1915C30.895 18.6797 31.8465 17.9253 32.5919 16.9866C33.6885 15.6056 34.2855 13.894 34.2855 12.1305V7.75887ZM11.4696 13.2413C10.6205 12.3921 10.6204 11.0153 11.4696 10.1662C12.3188 9.31702 13.6955 9.31702 14.5447 10.1662C14.7741 10.3955 14.8795 10.629 15.0267 10.9548C15.4243 11.8352 16.1263 13.3894 20.4001 17.3572C16.5691 15.5838 14.5538 14.7609 13.3988 14.2893C12.1564 13.7821 11.9097 13.6813 11.4696 13.2413ZM25.3858 23.6166C26.235 24.4658 26.235 25.8425 25.3858 26.6917C24.5367 27.5409 23.1599 27.5409 22.3107 26.6917C22.0814 26.4623 21.9759 26.2288 21.8288 25.9031C21.4312 25.0227 20.7292 23.4684 16.4553 19.5007C20.2863 21.2741 22.3017 22.097 23.4566 22.5685C24.699 23.0758 24.9457 23.1765 25.3858 23.6166Z" fill="white"/>
</svg>
