<svg width="32" height="56" viewBox="0 0 32 56" fill="none" xmlns="http://www.w3.org/2000/svg">
<mask id="path-1-inside-1_2107_574" fill="white">
<path fill-rule="evenodd" clip-rule="evenodd" d="M1.15004 34.972C0.408247 36.7372 0 38.6653 0 40.6846C0 49.1433 7.16344 56.0005 16 56.0005C24.8366 56.0005 32 49.1433 32 40.6846C32 38.6759 31.5961 36.7576 30.8617 34.9999L17.8667 1.28074C17.2085 -0.426979 14.7924 -0.426975 14.1343 1.28074L1.15004 34.972Z"/>
</mask>
<path fill-rule="evenodd" clip-rule="evenodd" d="M1.15004 34.972C0.408247 36.7372 0 38.6653 0 40.6846C0 49.1433 7.16344 56.0005 16 56.0005C24.8366 56.0005 32 49.1433 32 40.6846C32 38.6759 31.5961 36.7576 30.8617 34.9999L17.8667 1.28074C17.2085 -0.426979 14.7924 -0.426975 14.1343 1.28074L1.15004 34.972Z" fill="url(#paint0_linear_2107_574)"/>
<path d="M1.15004 34.972L2.07195 35.3594L2.07776 35.3455L2.08315 35.3316L1.15004 34.972ZM30.8617 34.9999L29.9286 35.3595L29.9336 35.3726L29.939 35.3854L30.8617 34.9999ZM17.8667 1.28074L16.9336 1.64034L17.8667 1.28074ZM14.1343 1.28074L13.2012 0.921127L14.1343 1.28074ZM1 40.6846C1 38.8014 1.38049 37.0049 2.07195 35.3594L0.228132 34.5846C-0.563995 36.4696 -1 38.5291 -1 40.6846H1ZM16 55.0005C7.6741 55.0005 1 48.5503 1 40.6846H-1C-1 49.7363 6.65279 57.0005 16 57.0005V55.0005ZM31 40.6846C31 48.5503 24.3259 55.0005 16 55.0005V57.0005C25.3472 57.0005 33 49.7363 33 40.6846H31ZM29.939 35.3854C30.6235 37.0238 31 38.8113 31 40.6846H33C33 38.5405 32.5686 36.4913 31.7844 34.6144L29.939 35.3854ZM16.9336 1.64034L29.9286 35.3595L31.7948 34.6403L18.7998 0.921127L16.9336 1.64034ZM15.0674 1.64034C15.3964 0.786488 16.6045 0.786488 16.9336 1.64034L18.7998 0.921127C17.8126 -1.64045 14.1884 -1.64044 13.2012 0.921127L15.0674 1.64034ZM2.08315 35.3316L15.0674 1.64034L13.2012 0.921127L0.21694 34.6123L2.08315 35.3316Z" fill="#272727" mask="url(#path-1-inside-1_2107_574)"/>
<defs>
<linearGradient id="paint0_linear_2107_574" x1="32" y1="41.5032" x2="0.0005543" y2="41.7766" gradientUnits="userSpaceOnUse">
<stop stop-color="#838383"/>
<stop offset="0.49" stop-color="#B6B6B6"/>
<stop offset="1" stop-color="#838383"/>
</linearGradient>
</defs>
</svg>
