<svg width="49" height="48" viewBox="0 0 49 48" fill="none" xmlns="http://www.w3.org/2000/svg">
<path d="M48.5 24C48.5 37.2548 37.7548 48 24.5 48C11.2452 48 0.5 37.2548 0.5 24C0.5 10.7452 11.2452 0 24.5 0C37.7548 0 48.5 10.7452 48.5 24ZM5.3 24C5.3 34.6039 13.8961 43.2 24.5 43.2C35.1039 43.2 43.7 34.6039 43.7 24C43.7 13.3961 35.1039 4.8 24.5 4.8C13.8961 4.8 5.3 13.3961 5.3 24Z" fill="white" fill-opacity="0.08"/>
<path d="M24.5 45.6C24.5 46.9255 25.5772 48.0124 26.8961 47.8801C30.7029 47.4982 34.3757 46.2101 37.6007 44.109C41.4983 41.5698 44.5739 37.9527 46.4535 33.6976C48.3331 29.4426 48.9356 24.733 48.1879 20.1418C47.44 15.5506 45.3741 11.2756 42.2414 7.83699C39.1087 4.39833 35.0441 1.94418 30.5423 0.773057C26.0404 -0.398064 21.2952 -0.23567 16.8839 1.24048C12.4727 2.71663 8.58544 5.44292 5.69513 9.0877C3.30352 12.1036 1.67977 15.6408 0.945789 19.3957C0.691504 20.6965 1.67367 21.8701 2.99342 21.9932C4.31317 22.1164 5.46786 21.1408 5.75459 19.8467C6.38138 17.0178 7.64288 14.3567 9.4561 12.0702C11.7684 9.15434 14.8781 6.97331 18.4072 5.79238C21.9362 4.61146 25.7323 4.48155 29.3338 5.41844C32.9353 6.35534 36.1869 8.31867 38.6931 11.0696C41.1993 13.8205 42.852 17.2405 43.4503 20.9134C44.0485 24.5864 43.5665 28.3541 42.0628 31.7581C40.5591 35.1621 38.0986 38.0558 34.9806 40.0872C32.5355 41.6801 29.7687 42.689 26.8938 43.0502C25.5787 43.2155 24.5 44.2745 24.5 45.6Z" fill="url(#paint0_linear_2107_525)"/>
<path d="M37.5602 24.0013C37.5602 31.0186 31.8716 36.7072 24.8543 36.7072C17.8371 36.7072 12.1484 31.0186 12.1484 24.0013C12.1484 16.984 17.8371 11.2954 24.8543 11.2954C31.8716 11.2954 37.5602 16.984 37.5602 24.0013ZM15.7061 24.0013C15.7061 29.0537 19.8019 33.1495 24.8543 33.1495C29.9067 33.1495 34.0026 29.0537 34.0026 24.0013C34.0026 18.9489 29.9067 14.8531 24.8543 14.8531C19.8019 14.8531 15.7061 18.9489 15.7061 24.0013Z" fill="white" fill-opacity="0.08"/>
<path d="M24.8543 13.0742C24.8543 12.0918 24.0541 11.2826 23.0813 11.4197C21.2466 11.6783 19.4831 12.3361 17.9187 13.3554C15.8552 14.6996 14.227 16.6146 13.2319 18.8673C12.2368 21.1199 11.9178 23.6132 12.3137 26.0439C12.7096 28.4745 13.8033 30.7377 15.4618 32.5582C17.1203 34.3786 19.2721 35.6779 21.6555 36.2979C24.0388 36.9179 26.551 36.8319 28.8863 36.0504C31.2217 35.269 33.2797 33.8256 34.8098 31.896C35.97 30.433 36.7888 28.7383 37.2167 26.9356C37.4436 25.9797 36.7123 25.1078 35.7341 25.0165C34.7559 24.9252 33.9057 25.6531 33.6271 26.5952C33.2965 27.7134 32.7536 28.7634 32.0223 29.6855C30.9206 31.0748 29.4389 32.114 27.7574 32.6767C26.0759 33.2394 24.2672 33.3013 22.5511 32.8549C20.8351 32.4085 19.2858 31.473 18.0917 30.1623C16.8976 28.8515 16.1101 27.222 15.8251 25.4719C15.54 23.7219 15.7697 21.9267 16.4862 20.3048C17.2026 18.6829 18.375 17.3041 19.8606 16.3362C20.8467 15.6938 21.9426 15.2508 23.0867 15.0255C24.0506 14.8356 24.8543 14.0567 24.8543 13.0742Z" fill="url(#paint1_linear_2107_525)"/>
<defs>
<linearGradient id="paint0_linear_2107_525" x1="23.2797" y1="-9.28364e-07" x2="25.927" y2="47.8611" gradientUnits="userSpaceOnUse">
<stop stop-color="#CEF305"/>
<stop offset="1" stop-color="#96B005"/>
</linearGradient>
<linearGradient id="paint1_linear_2107_525" x1="24.2083" y1="11.2954" x2="25.6098" y2="36.6336" gradientUnits="userSpaceOnUse">
<stop stop-color="#CEF305"/>
<stop offset="1" stop-color="#96B005"/>
</linearGradient>
</defs>
</svg>
