<svg width="16" height="17" viewBox="0 0 16 17" fill="none" xmlns="http://www.w3.org/2000/svg">
<path fill-rule="evenodd" clip-rule="evenodd" d="M9.9043 7.72295C10.3859 6.98869 10.6661 6.11039 10.6661 5.16667C10.6661 4.22294 10.3859 3.34464 9.9043 2.61038C10.1457 2.53857 10.4014 2.5 10.666 2.5C12.1388 2.5 13.3327 3.69391 13.3327 5.16667C13.3327 6.63943 12.1388 7.83333 10.666 7.83333C10.4014 7.83333 10.1457 7.79477 9.9043 7.72295ZM11.9154 14.5C11.9702 14.2869 11.9994 14.0635 11.9994 13.8333V13.1667C11.9994 11.9054 11.5616 10.7464 10.8297 9.83333H11.3327C13.1737 9.83333 14.666 11.3257 14.666 13.1667V13.8333C14.666 14.2015 14.3676 14.5 13.9994 14.5H11.9154Z" fill="#CEF305"/>
<path fill-rule="evenodd" clip-rule="evenodd" d="M5.99967 3.16659C4.89511 3.16659 3.99967 4.06202 3.99967 5.16659C3.99967 6.27115 4.89511 7.16659 5.99967 7.16659C7.10424 7.16659 7.99967 6.27115 7.99967 5.16659C7.99967 4.06202 7.10424 3.16659 5.99967 3.16659ZM2.66634 5.16659C2.66634 3.32564 4.15873 1.83325 5.99967 1.83325C7.84062 1.83325 9.33301 3.32564 9.33301 5.16659C9.33301 7.00753 7.84062 8.49992 5.99967 8.49992C4.15873 8.49992 2.66634 7.00753 2.66634 5.16659ZM1.33301 13.1666C1.33301 10.9574 3.12387 9.16659 5.33301 9.16659H6.66634C8.87548 9.16659 10.6663 10.9574 10.6663 13.1666V13.8333C10.6663 14.5696 10.0694 15.1666 9.33301 15.1666H2.66634C1.92996 15.1666 1.33301 14.5696 1.33301 13.8333V13.1666ZM5.33301 10.4999C3.86025 10.4999 2.66634 11.6938 2.66634 13.1666V13.8333H9.33301V13.1666C9.33301 11.6938 8.1391 10.4999 6.66634 10.4999H5.33301Z" fill="#CEF305"/>
</svg>
